<svg width="80" viewBox="0 0 165 157" fill="none" xmlns="http://www.w3.org/2000/svg">
<path d="M66.7495 110.424C64.7107 105.43 60.9877 101.296 56.2182 98.7295C51.4487 96.1632 45.9294 95.3243 40.6058 96.3565C35.2821 97.3887 30.4854 100.228 27.037 104.387C23.5887 108.547 21.7034 113.769 21.704 119.157C21.704 121.543 21.2109 123.903 20.2551 126.092C19.2993 128.28 17.9013 130.25 16.1477 131.88C14.3941 133.51 12.3223 134.764 10.0607 135.566C7.79909 136.367 5.39587 136.699 3 136.54C6.8534 143.191 12.809 148.391 19.9421 151.335C27.0753 154.278 34.987 154.8 42.4491 152.819C49.9112 150.837 56.5061 146.464 61.2101 140.377C65.9142 134.29 68.4641 126.831 68.4641 119.157C68.4641 116.068 67.8562 113.118 66.7495 110.424ZM66.7495 110.424C76.0159 107.287 84.8782 103.077 93.1534 97.8803M53.8516 97.6867C57.0099 88.461 61.2528 79.6378 66.4924 71.3999M93.1456 97.8803C107.924 88.6024 120.573 76.341 130.273 61.8918L160.48 16.8753C161.637 15.1607 162.159 13.1002 161.957 11.0457C161.756 8.99113 160.842 7.06996 159.373 5.61026C157.903 4.15056 155.97 3.24288 153.902 3.04222C151.834 2.84156 149.76 3.36037 148.034 4.51005L102.724 34.5288C88.1781 44.1626 75.8339 56.7274 66.4924 71.4077C78.3513 76.6789 87.84 86.106 93.1456 97.888" stroke="white" stroke-width="6" stroke-linecap="round" stroke-linejoin="round"/>
</svg>
