<svg width="17" height="19" viewBox="0 0 17 19" fill="none" xmlns="http://www.w3.org/2000/svg">
<path d="M3.77734 8.5H5.66623V10.3889H3.77734V8.5ZM3.77734 12.2778H5.66623V14.1667H3.77734V12.2778ZM7.55512 8.5H9.44401V10.3889H7.55512V8.5ZM7.55512 12.2778H9.44401V14.1667H7.55512V12.2778ZM11.3329 8.5H13.2218V10.3889H11.3329V8.5ZM11.3329 12.2778H13.2218V14.1667H11.3329V12.2778Z" fill="#696969"/>
<path d="M1.88889 18.8889H15.1111C16.1528 18.8889 17 18.0417 17 17V3.77778C17 2.73606 16.1528 1.88889 15.1111 1.88889H13.2222V0H11.3333V1.88889H5.66667V0H3.77778V1.88889H1.88889C0.847167 1.88889 0 2.73606 0 3.77778V17C0 18.0417 0.847167 18.8889 1.88889 18.8889ZM15.1111 5.66667L15.1121 17H1.88889V5.66667H15.1111Z" fill="#696969"/>
</svg>
