<svg width="100" height="100" viewBox="0 0 180 180" fill="none" xmlns="http://www.w3.org/2000/svg">
<path d="M116.667 116.667L170 170M72.2222 134.444C64.0511 134.444 55.96 132.835 48.4108 129.708C40.8617 126.581 34.0023 121.998 28.2245 116.22C22.4466 110.442 17.8633 103.583 14.7364 96.0336C11.6094 88.4845 10 80.3934 10 72.2222C10 64.0511 11.6094 55.96 14.7364 48.4108C17.8633 40.8617 22.4466 34.0023 28.2245 28.2245C34.0023 22.4466 40.8617 17.8633 48.4108 14.7364C55.96 11.6094 64.0511 10 72.2222 10C88.7246 10 104.551 16.5555 116.22 28.2245C127.889 39.8934 134.444 55.7199 134.444 72.2222C134.444 88.7246 127.889 104.551 116.22 116.22C104.551 127.889 88.7246 134.444 72.2222 134.444Z" stroke="url(#paint0_linear_102_478)" stroke-width="20" stroke-linecap="round" stroke-linejoin="round"/>
<defs>
<linearGradient id="paint0_linear_102_478" x1="90" y1="10" x2="91.9227" y2="172.78" gradientUnits="userSpaceOnUse">
<stop stop-color="#FF4D00"/>
<stop offset="1" stop-color="#FE3C72"/>
</linearGradient>
</defs>
</svg>
