<svg width="19" height="21" viewBox="0 0 19 21" fill="none" xmlns="http://www.w3.org/2000/svg">
<path d="M9.49938 19.7426C9.49938 19.7426 2.00234 15.5255 2.00234 8.68446C1.97733 7.68427 2.15277 6.6892 2.51831 5.75788C2.88386 4.82655 3.43212 3.97781 4.13079 3.26168C4.82946 2.54554 5.66441 1.97649 6.58642 1.58806C7.50844 1.19964 8.49888 0.999688 9.49938 1C10.4999 0.999688 11.4903 1.19964 12.4123 1.58806C13.3343 1.97649 14.1693 2.54554 14.868 3.26168C15.5666 3.97781 16.1149 4.82655 16.4804 5.75788C16.846 6.6892 17.0214 7.68427 16.9964 8.68446C16.9964 15.5255 9.49938 19.7426 9.49938 19.7426Z" stroke="#696969" stroke-width="2"/>
<path d="M9.49889 11.3084C11.0516 11.3084 12.3103 10.0497 12.3103 8.49706C12.3103 6.94437 11.0516 5.68567 9.49889 5.68567C7.9462 5.68567 6.6875 6.94437 6.6875 8.49706C6.6875 10.0497 7.9462 11.3084 9.49889 11.3084Z" stroke="#696969" stroke-width="2"/>
</svg>
