<svg width="36" height="36" viewBox="0 0 36 36" fill="none" xmlns="http://www.w3.org/2000/svg" style="padding-left: 10px">
<path d="M10.8889 18H18M18 18H25.1111M18 18V25.1111M18 18V10.8889M18 34C15.8989 34 13.8183 33.5861 11.8771 32.7821C9.93586 31.978 8.17203 30.7994 6.68629 29.3137C5.20055 27.828 4.022 26.0641 3.21793 24.1229C2.41385 22.1817 2 20.1012 2 18C2 15.8989 2.41385 13.8183 3.21793 11.8771C4.022 9.93586 5.20055 8.17203 6.68629 6.68629C8.17203 5.20055 9.93586 4.022 11.8771 3.21793C13.8183 2.41385 15.8989 2 18 2C22.2435 2 26.3131 3.68571 29.3137 6.68629C32.3143 9.68687 34 13.7565 34 18C34 22.2435 32.3143 26.3131 29.3137 29.3137C26.3131 32.3143 22.2435 34 18 34Z" stroke="#FE3C72" stroke-width="2.5" stroke-linecap="round" stroke-linejoin="round"/>
</svg>
