<svg width="18" height="16" viewBox="0 0 18 16" fill="none" xmlns="http://www.w3.org/2000/svg">
<path d="M12.5556 2.75C12.9694 2.75025 13.3776 2.84533 13.7477 3.02772C14.1178 3.21011 14.4397 3.47479 14.6879 3.80083C14.9361 4.12686 15.1038 4.5053 15.1777 4.90617C15.2516 5.30704 15.2298 5.71935 15.1138 6.11045C14.9978 6.50156 14.791 6.86073 14.5096 7.15952C14.2282 7.45832 13.8801 7.68854 13.4927 7.83197C13.1053 7.97539 12.6893 8.02809 12.2776 7.98587C11.866 7.94366 11.4699 7.8077 11.1209 7.58875M13.4444 10.625C14.3874 10.625 15.2918 10.9937 15.9586 11.6501C16.6254 12.3065 17 13.1967 17 14.125V15H14.024M9 4.0625C9 4.46467 8.91953 4.86291 8.76318 5.23447C8.60683 5.60603 8.37767 5.94364 8.08878 6.22801C7.79988 6.51239 7.45692 6.73798 7.07946 6.89188C6.702 7.04579 6.29745 7.125 5.88889 7.125C5.48033 7.125 5.07578 7.04579 4.69832 6.89188C4.32086 6.73798 3.97789 6.51239 3.689 6.22801C3.40011 5.94364 3.17094 5.60603 3.0146 5.23447C2.85825 4.86291 2.77778 4.46467 2.77778 4.0625C2.77778 3.25027 3.10555 2.47132 3.689 1.89699C4.27245 1.32266 5.06377 1 5.88889 1C6.71401 1 7.50533 1.32266 8.08878 1.89699C8.67222 2.47132 9 3.25027 9 4.0625ZM4.55556 9.75H7.22222C8.16521 9.75 9.06958 10.1187 9.73638 10.7751C10.4032 11.4315 10.7778 12.3217 10.7778 13.25V15H1V13.25C1 12.3217 1.3746 11.4315 2.0414 10.7751C2.70819 10.1187 3.61256 9.75 4.55556 9.75Z" stroke="#434343" stroke-width="2" stroke-linecap="round" stroke-linejoin="round"/>
</svg>
